# xmcd
#
# Track frame offsets:
#	150
#	18150
#	32350
#	52342
#	73067
#	89397
#	104262
#	122675
#	145842
#	160370
#	176840
#	193270
#
# Disc length: 2744 seconds
#
# Revision: 0
# Processed by: cddbd v1.5.1PL0 Copyright (c) Steve Scherf et al.
# Submitted via: dBpowerAMP V4.0
#
DISCID=a90ab60c
DTITLE=Various Artist - immortal Love Songs Series 2
DYEAR=1900
DGENRE=Blues
TTITLE0=01. The Baby's - Evrytime I Think Of You
TTITLE1=02. Dan Seals - One Friend
TTITLE2=03. Tracie Spencer - My First Broken Heart
TTITLE3=04. Freddie Jackson - He'll Never Love You Like I Do
TTITLE4=05. Olivia Newton-John - I Honestly Love You
TTITLE5=06. Peabo Bryson and Roberta Flack - Maybe
TTITLE6=07. Skylark - Wild Flower
TTITLE7=08. Cliff Richard - Ocean Deep
TTITLE8=09. Liza Angelle - The First Time I Love Forever
TTITLE9=10. Adrian Gurvitz - Classic
TTITLE10=11. Sheena Easton - Almost Over You
TTITLE11=12. Anne Murray - I Just Fall In Love Again
EXTD=
EXTT0=
EXTT1=
EXTT2=
EXTT3=
EXTT4=
EXTT5=
EXTT6=
EXTT7=
EXTT8=
EXTT9=
EXTT10=
EXTT11=
PLAYORDER=
